REM DIRINDEX 1\6,1\2\7,1\2\8,1\2\9,1\3\10,1\3\11,1\4\12,1\4\13,1\4\14,1\5\15,1\5\16,1\5\17
REM DIRNAME cjc040,folder01,folder02,folder03,folder04,folder05,folder06,folder07,folder08,folder09,folder10,folder11,folder12,folder13,folder14,folder15,folder16
TITLE ""
FILE "P2Q_t2_0753-0770.mp3" MP3
  TRACK 01 AUDIO
    TITLE "7:cjc040_6091"
    INDEX 01 00:00:00
  TRACK 02 AUDIO
    TITLE "0:"
    INDEX 01 00:01:07
  TRACK 03 AUDIO
    TITLE "8:cjc040_6092"
    INDEX 01 00:01:62
  TRACK 04 AUDIO
    TITLE "0:"
    INDEX 01 00:06:37
  TRACK 05 AUDIO
    TITLE "9:cjc040_6093"
    INDEX 01 00:07:19
  TRACK 06 AUDIO
    TITLE "0:"
    INDEX 01 00:08:40
  TRACK 07 AUDIO
    TITLE "7:cjc040_6094"
    INDEX 01 00:10:14
  TRACK 08 AUDIO
    TITLE "0:"
    INDEX 01 00:11:29
  TRACK 09 AUDIO
    TITLE "8:cjc040_6095"
    INDEX 01 00:12:03
  TRACK 10 AUDIO
    TITLE "0:"
    INDEX 01 00:13:20
  TRACK 11 AUDIO
    TITLE "9:cjc040_6096"
    INDEX 01 00:13:67
  TRACK 12 AUDIO
    TITLE "0:"
    INDEX 01 00:15:13
  TRACK 13 AUDIO
    TITLE "7:cjc040_6097"
    INDEX 01 00:16:71
  TRACK 14 AUDIO
    TITLE "0:"
    INDEX 01 00:18:25
  TRACK 15 AUDIO
    TITLE "8:cjc040_6098"
    INDEX 01 00:19:05
  TRACK 16 AUDIO
    TITLE "0:"
    INDEX 01 00:20:47
  TRACK 17 AUDIO
    TITLE "9:cjc040_6099"
    INDEX 01 00:21:21
  TRACK 18 AUDIO
    TITLE "0:"
    INDEX 01 00:22:50
  TRACK 19 AUDIO
    TITLE "7:cjc040_6100"
    INDEX 01 00:24:33
  TRACK 20 AUDIO
    TITLE "0:"
    INDEX 01 00:25:37
  TRACK 21 AUDIO
    TITLE "8:cjc040_6101"
    INDEX 01 00:26:18
  TRACK 22 AUDIO
    TITLE "0:"
    INDEX 01 00:27:20
  TRACK 23 AUDIO
    TITLE "9:cjc040_6102"
    INDEX 01 00:27:73
  TRACK 24 AUDIO
    TITLE "0:"
    INDEX 01 00:28:72
  TRACK 25 AUDIO
    TITLE "7:cjc040_6103"
    INDEX 01 00:30:65
  TRACK 26 AUDIO
    TITLE "0:"
    INDEX 01 00:32:05
  TRACK 27 AUDIO
    TITLE "8:cjc040_6104"
    INDEX 01 00:32:58
  TRACK 28 AUDIO
    TITLE "0:"
    INDEX 01 00:34:16
  TRACK 29 AUDIO
    TITLE "9:cjc040_6105"
    INDEX 01 00:34:67
  TRACK 30 AUDIO
    TITLE "0:"
    INDEX 01 00:36:11
  TRACK 31 AUDIO
    TITLE "7:cjc040_6106"
    INDEX 01 00:37:67
  TRACK 32 AUDIO
    TITLE "0:"
    INDEX 01 00:39:17
  TRACK 33 AUDIO
    TITLE "8:cjc040_6107"
    INDEX 01 00:39:70
  TRACK 34 AUDIO
    TITLE "0:"
    INDEX 01 00:41:38
  TRACK 35 AUDIO
    TITLE "9:cjc040_6108"
    INDEX 01 00:42:14
  TRACK 36 AUDIO
    TITLE "0:"
    INDEX 01 00:43:40
  TRACK 37 AUDIO
    TITLE "7:cjc040_6109"
    INDEX 01 00:45:16
  TRACK 38 AUDIO
    TITLE "0:"
    INDEX 01 00:46:47
  TRACK 39 AUDIO
    TITLE "8:cjc040_6110"
    INDEX 01 00:47:28
  TRACK 40 AUDIO
    TITLE "0:"
    INDEX 01 00:50:25
  TRACK 41 AUDIO
    TITLE "9:cjc040_6111"
    INDEX 01 00:51:07
  TRACK 42 AUDIO
    TITLE "0:"
    INDEX 01 00:52:37
  TRACK 43 AUDIO
    TITLE "7:cjc040_6112"
    INDEX 01 00:54:21
  TRACK 44 AUDIO
    TITLE "0:"
    INDEX 01 00:55:26
  TRACK 45 AUDIO
    TITLE "8:cjc040_6113"
    INDEX 01 00:56:12
  TRACK 46 AUDIO
    TITLE "0:"
    INDEX 01 00:59:14
  TRACK 47 AUDIO
    TITLE "9:cjc040_6114"
    INDEX 01 00:59:69
  TRACK 48 AUDIO
    TITLE "0:"
    INDEX 01 01:00:74
  TRACK 49 AUDIO
    TITLE "7:cjc040_6115"
    INDEX 01 01:02:54
  TRACK 50 AUDIO
    TITLE "0:"
    INDEX 01 01:03:71
  TRACK 51 AUDIO
    TITLE "8:cjc040_6116"
    INDEX 01 01:04:47
  TRACK 52 AUDIO
    TITLE "0:"
    INDEX 01 01:07:68
  TRACK 53 AUDIO
    TITLE "9:cjc040_6117"
    INDEX 01 01:08:46
  TRACK 54 AUDIO
    TITLE "0:"
    INDEX 01 01:09:63
  TRACK 55 AUDIO
    TITLE "7:cjc040_6118"
    INDEX 01 01:11:41
  TRACK 56 AUDIO
    TITLE "0:"
    INDEX 01 01:12:38
  TRACK 57 AUDIO
    TITLE "8:cjc040_6119"
    INDEX 01 01:13:20
  TRACK 58 AUDIO
    TITLE "0:"
    INDEX 01 01:16:44
  TRACK 59 AUDIO
    TITLE "9:cjc040_6120"
    INDEX 01 01:17:26
  TRACK 60 AUDIO
    TITLE "0:"
    INDEX 01 01:18:29
  TRACK 61 AUDIO
    TITLE "7:cjc040_6121"
    INDEX 01 01:20:20
  TRACK 62 AUDIO
    TITLE "0:"
    INDEX 01 01:21:33
  TRACK 63 AUDIO
    TITLE "8:cjc040_6122"
    INDEX 01 01:22:09
  TRACK 64 AUDIO
    TITLE "0:"
    INDEX 01 01:24:67
  TRACK 65 AUDIO
    TITLE "9:cjc040_6123"
    INDEX 01 01:25:53
  TRACK 66 AUDIO
    TITLE "0:"
    INDEX 01 01:26:64
  TRACK 67 AUDIO
    TITLE "7:cjc040_6124"
    INDEX 01 01:28:51
  TRACK 68 AUDIO
    TITLE "0:"
    INDEX 01 01:29:62
  TRACK 69 AUDIO
    TITLE "8:cjc040_6125"
    INDEX 01 01:30:40
  TRACK 70 AUDIO
    TITLE "0:"
    INDEX 01 01:34:20
  TRACK 71 AUDIO
    TITLE "9:cjc040_6126"
    INDEX 01 01:35:02
  TRACK 72 AUDIO
    TITLE "0:"
    INDEX 01 01:36:17
  TRACK 73 AUDIO
    TITLE "7:cjc040_6127"
    INDEX 01 01:37:71
  TRACK 74 AUDIO
    TITLE "0:"
    INDEX 01 01:39:14
  TRACK 75 AUDIO
    TITLE "8:cjc040_6128"
    INDEX 01 01:39:70
  TRACK 76 AUDIO
    TITLE "0:"
    INDEX 01 01:42:49
  TRACK 77 AUDIO
    TITLE "9:cjc040_6129"
    INDEX 01 01:43:27
  TRACK 78 AUDIO
    TITLE "0:"
    INDEX 01 01:44:46
  TRACK 79 AUDIO
    TITLE "7:cjc040_6130"
    INDEX 01 01:46:35
  TRACK 80 AUDIO
    TITLE "0:"
    INDEX 01 01:47:42
  TRACK 81 AUDIO
    TITLE "8:cjc040_6131"
    INDEX 01 01:48:14
  TRACK 82 AUDIO
    TITLE "0:"
    INDEX 01 01:51:11
  TRACK 83 AUDIO
    TITLE "9:cjc040_6132"
    INDEX 01 01:51:66
  TRACK 84 AUDIO
    TITLE "0:"
    INDEX 01 01:52:71
  TRACK 85 AUDIO
    TITLE "7:cjc040_6133"
    INDEX 01 01:54:50
  TRACK 86 AUDIO
    TITLE "0:"
    INDEX 01 01:55:63
  TRACK 87 AUDIO
    TITLE "8:cjc040_6134"
    INDEX 01 01:56:45
  TRACK 88 AUDIO
    TITLE "0:"
    INDEX 01 01:59:22
  TRACK 89 AUDIO
    TITLE "9:cjc040_6135"
    INDEX 01 02:00:06
  TRACK 90 AUDIO
    TITLE "0:"
    INDEX 01 02:01:17
  TRACK 91 AUDIO
    TITLE "7:cjc040_6136"
    INDEX 01 02:02:73
  TRACK 92 AUDIO
    TITLE "0:"
    INDEX 01 02:04:23
  TRACK 93 AUDIO
    TITLE "8:cjc040_6137"
    INDEX 01 02:05:03
  TRACK 94 AUDIO
    TITLE "0:"
    INDEX 01 02:06:38
  TRACK 95 AUDIO
    TITLE "9:cjc040_6138"
    INDEX 01 02:07:18
  TRACK 96 AUDIO
    TITLE "0:"
    INDEX 01 02:08:47
  TRACK 97 AUDIO
    TITLE "7:cjc040_6139"
    INDEX 01 02:10:28
  TRACK 98 AUDIO
    TITLE "0:"
    INDEX 01 02:11:47
  TRACK 99 AUDIO
    TITLE "8:cjc040_6140"
    INDEX 01 02:12:25
  TRACK 100 AUDIO
    TITLE "0:"
    INDEX 01 02:14:08
  TRACK 101 AUDIO
    TITLE "9:cjc040_6141"
    INDEX 01 02:14:71
  TRACK 102 AUDIO
    TITLE "0:"
    INDEX 01 02:16:13
  TRACK 103 AUDIO
    TITLE "7:cjc040_6142"
    INDEX 01 02:17:71
  TRACK 104 AUDIO
    TITLE "0:"
    INDEX 01 02:18:65
  TRACK 105 AUDIO
    TITLE "8:cjc040_6143"
    INDEX 01 02:19:44
  TRACK 106 AUDIO
    TITLE "0:"
    INDEX 01 02:20:46
  TRACK 107 AUDIO
    TITLE "9:cjc040_6144"
    INDEX 01 02:21:22
  TRACK 108 AUDIO
    TITLE "0:"
    INDEX 01 02:22:15
